PathFileType	4	(X/Y/Z)	Run_400 01
DataRate	CameraRate	NumFrames	NumMarkers	Units	OrigDataRate	OrigDataStartFrame	OrigNumFrames
120	120	5	42	mm	120	223	128
Frame#	Time	LASI			RASI			LPSI			RTH1			RTH2			RTH3			LTH1			LTH2			LTH3			RTB1			RTB2			RTB3			LTB1			LTB2			LTB3			RCAL			RTOE			RMT5			LCAL			LTOE			LMT5			LACR			RACR			CLAV			C7			RUA1			RUA2			RUA3			RLEL			RMEL			LUA1			LUA2			LUA3			LLEL			LMEL			RFAsuperior			RFAradius			LFAsuperior			LFAradius			LFAulna			RFAulna			RPSI			
		X1	Y1	Z1	X2	Y2	Z2	X3	Y3	Z3	X4	Y4	Z4	X5	Y5	Z5	X6	Y6	Z6	X7	Y7	Z7	X8	Y8	Z8	X9	Y9	Z9	X10	Y10	Z10	X11	Y11	Z11	X12	Y12	Z12	X13	Y13	Z13	X14	Y14	Z14	X15	Y15	Z15	X16	Y16	Z16	X17	Y17	Z17	X18	Y18	Z18	X19	Y19	Z19	X20	Y20	Z20	X21	Y21	Z21	X22	Y22	Z22	X23	Y23	Z23	X24	Y24	Z24	X25	Y25	Z25	X26	Y26	Z26	X27	Y27	Z27	X28	Y28	Z28	X29	Y29	Z29	X30	Y30	Z30	X31	Y31	Z31	X32	Y32	Z32	X33	Y33	Z33	X34	Y34	Z34	X35	Y35	Z35	X36	Y36	Z36	X37	Y37	Z37	X38	Y38	Z38	X39	Y39	Z39	X40	Y40	Z40	X41	Y41	Z41	X42	Y42	Z42	

214	2.416667	1114.555508	981.822357	-456.409307	1122.397843	961.694589	-226.994937	948.091068	1008.810655	-386.981435	1078.141896	792.89396	-183.15767	1170.617031	662.086652	-210.162986	1127.323731	567.990644	-229.720197	1083.886242	815.887306	-524.0695009999999	1190.911299	743.164006	-506.243522	1159.858072	601.857484	-492.26489	1042.833766	435.585945	-285.408332	987.241987	500.452355	-233.275221	864.3239610000001	472.634089	-285.403269	1220.160387	373.10862	-412.114633	1155.331855	289.135501	-459.394888	1145.3482	193.163862	-391.170899	743.763672	607.186066	-317.152034	690.189282	403.136902	-312.771793	670.7367850000001	431.561766	-210.515844	992.389537	92.350008	-385.213744	1197.159769	78.778713	-341.127673	1192.729124	38.414825	-446.418997	1093.393163	1431.494848	-556.563166	1129.938455	1444.360923	-188.946044	1182.355432	1391.005962	-354.285395	1069.424942	1480.247328	-379.387876	1095.558134	1370.908668	-135.604412	1075.704773	1284.453695	-143.971572	995.820204	1307.999817	-118.147216	944.6600989999999	1210.902681	-82.9757	920.831366	1209.973831	-149.193807	1038.87867	1366.088458	-602.643065	966.003229	1337.212733	-567.207499	992.142434	1271.007976	-616.704851	886.508523	1207.723591	-629.995528	870.603154	1208.156545	-556.469381	1009.739857	1138.216553	-75.557278	1087.261026	974.6120560000001	-114.10066	962.940461	1174.628968	-635.933939	1132.947452	1111.584429	-567.522976	1104.572066	1053.563518	-589.054518	1021.961092	955.769048	-102.837185	952.808506	1002.938564	-289.576846	
215	2.425	1111.716664	976.819361	-456.541849	1118.645449	955.253516	-226.734123	945.114018	1004.983003	-386.983189	1080.407329	789.128426	-183.348816	1182.015581	664.456636	-208.745268	1145.390808	567.971168	-227.413094	1078.507223	811.89645	-524.4523819999999	1181.220151	733.2247620000001	-508.526047	1147.12918	593.6660010000001	-489.32862	1067.329428	436.560804	-283.695737	1010.100078	498.45185	-230.369448	888.007188	468.115274	-283.932367	1201.778236	367.252331	-408.677164	1133.321025	285.08509	-456.78225	1117.772146	189.87467	-388.914355	761.929095	599.562997	-315.618817	716.310565	393.613092	-312.938012	695.771144	420.280624	-210.362746	959.957388	93.189583	-383.232065	1164.478052	78.08594600000001	-339.938377	1159.348149	38.55179	-445.566015	1096.181921	1424.827237	-558.307649	1126.327543	1439.134751	-188.454476	1182.315014	1385.518016	-352.914658	1069.488433	1475.350138	-380.573091	1090.950226	1364.896323	-135.781012	1070.060221	1279.170171	-145.026767	989.987079	1302.848635	-119.720577	936.636254	1207.142829	-86.024306	913.7593869999999	1205.941914	-151.806213	1046.082322	1354.305375	-604.138343	972.152747	1323.6105	-572.728565	1002.633601	1258.584649	-619.240237	900.381639	1191.318204	-636.3815970000001	879.971445	1190.989406	-563.975802	998.528471	1132.36378	-75.45458000000001	1068.964447	964.771112	-107.329747	979.287626	1162.1677	-638.33416	1147.346647	1105.424257	-564.681929	1121.986904	1046.071537	-587.240276	1002.226231	949.092625	-97.80732	949.258242	998.6455570000001	-289.944904	
216	2.433333	1109.125007	972.921992	-456.868938	1114.751533	950.5570310000001	-225.740867	942.462636	1002.672353	-386.754612	1082.13506	787.764123	-183.162068	1193.335968	669.502564	-207.509625	1163.244646	571.254268	-225.237912	1072.281943	808.586264	-524.531025	1169.049453	724.435076	-510.43937	1130.760571	586.645312	-485.75698	1092.068384	439.250629	-281.934222	1032.591154	497.479363	-227.845895	911.558293	462.842703	-282.671061	1181.918068	361.394941	-408.091242	1109.418586	280.857314	-455.554377	1088.718054	186.566137	-388.025198	778.199158	589.176274	-314.160963	744.125169	381.083749	-313.133202	721.92509	405.651663	-210.411688	926.939495	93.965386	-382.607504	1131.460408	76.86040800000001	-338.874197	1125.772504	38.356722	-445.066245	1099.406262	1419.516482	-559.398536	1122.860124	1435.191427	-187.936275	1182.027714	1381.360537	-351.361999	1069.723646	1471.811101	-381.453281	1086.302935	1360.46227	-136.012621	1064.498498	1275.378966	-145.895678	984.0071809999999	1299.409733	-121.956898	928.25481	1205.058086	-89.55919299999999	906.356182	1203.452593	-154.72958	1053.509699	1345.542628	-605.036932	979.625459	1312.062383	-576.593613	1013.985488	1248.791475	-621.27721	915.820834	1176.845507	-642.400497	890.544579	1175.452354	-571.60532	987.861824	1129.03725	-76.321005	1051.01045	957.812502	-101.080617	996.919879	1152.394257	-640.120587	1162.557082	1102.330056	-560.941361	1140.606519	1041.60571	-584.336313	983.10708	944.986762	-93.549605	946.026977	995.832023	-290.163275	
217	2.441667	1106.934349	970.073158	-457.040836	1111.01489	948.015925	-224.319078	940.239835	1001.53295	-386.642966	1083.378344	788.135746	-182.627242	1204.377021	676.905036	-206.461827	1180.33801	577.53642	-223.130093	1064.917405	805.372494	-524.2191350000001	1156.167126	717.2635330000001	-511.441489	1113.359672	581.080861	-483.187672	1116.437068	442.953637	-280.490346	1054.334264	497.129261	-225.973871	934.888236	456.863852	-281.743728	1159.853084	354.92189	-409.574981	1083.528037	276.705489	-455.512373	1058.38519	183.599788	-388.173338	792.975247	576.034207	-312.809282	773.52037	366.093932	-313.340265	749.44097	388.22973	-210.577563	893.48371	94.79537500000001	-382.974491	1098.223806	75.41678	-338.232747	1091.980579	38.07933	-445.07494	1103.105289	1415.934698	-559.785373	1119.456466	1432.71355	-187.415606	1181.57496	1378.594931	-349.56907	1070.025138	1469.64749	-382.075376	1081.415462	1357.973567	-136.284959	1058.833068	1273.370079	-146.516819	977.791547	1298.184362	-125.184741	919.577077	1205.056652	-93.567132	899.24621	1202.694094	-158.310166	1060.55595	1340.059046	-605.490632	987.844374	1302.908809	-578.464737	1025.754398	1241.863086	-622.901369	932.2493909999999	1165.072398	-647.854077	902.482098	1162.299757	-578.841149	977.687739	1128.356812	-77.984989	1033.736421	953.926472	-95.561739	1014.879442	1145.498817	-641.403476	1178.041457	1102.98542	-556.221568	1159.993722	1040.934773	-580.3268420000001	964.965133	943.5357310000001	-90.399709	943.215959	994.188369	-290.636188	
218	2.45	1105.205308	968.163989	-456.964749	1107.834112	947.6774830000001	-222.952501	938.512172	1001.365903	-386.916138	1084.507718	789.680208	-181.87498	1214.822443	686.2859999999999	-205.590565	1196.313656	586.286747	-221.079902	1056.294	802.4623360000001	-523.5095690000001	1144.115763	711.762949	-511.656182	1097.007235	576.9974110000001	-482.872076	1139.998227	447.082956	-279.688919	1075.148584	496.976536	-224.793569	958.179025	450.185028	-281.185006	1135.410026	348.208205	-411.725748	1056.192927	273.203122	-456.173115	1027.45047	181.496552	-388.997724	806.914295	560.179675	-311.625369	804.33118	349.223788	-313.447765	778.3799749999999	368.741221	-210.708067	860.084772	96.25808600000001	-383.856551	1064.950714	73.99918599999999	-338.077879	1058.095498	37.809373	-445.518022	1107.165319	1414.364899	-559.546465	1115.938254	1431.843088	-186.903567	1181.049335	1377.268686	-347.474749	1070.26205	1468.835919	-382.508638	1076.040871	1357.596822	-136.591053	1052.830706	1273.346683	-146.950338	971.239193	1299.286763	-129.522082	910.698255	1207.242505	-98.03647100000001	892.8426009999999	1203.673573	-162.773829	1067.041482	1337.509051	-605.6748260000001	996.108514	1296.308267	-578.8918660000001	1037.417173	1237.839514	-624.229902	948.92043	1156.46611	-652.52244	915.657321	1152.102882	-585.10544	967.60464	1130.073967	-80.054858	1017.502165	953.1603720000001	-90.75825	1032.34341	1141.505592	-642.255433	1193.149975	1107.707699	-550.483827	1179.520484	1044.521401	-575.325375	948.181485	944.638821	-88.51061199999999	940.915313	993.63939	-291.536125	
